Coordinates
version=1
nRows=12
nColumns=33
inDegrees=yes

Units are S.I. units (second, meters, Newtons, ...)
Angles are in degrees.

endheader
time	ground_thorax_rot_x	ground_thorax_rot_y	ground_thorax_rot_z	ground_thorax_tx	ground_thorax_ty	ground_thorax_tz	clav_prot_r	clav_elev_r	scapula_abduction_r	scapula_elevation_r	scapula_upward_rot_r	scapula_winging_r	shoulder_elv_r	plane_of_elev_r	axial_rot_r	elbow_flexion_r	pro_sup_r	wrist_flex_r	wrist_dev_r	clav_prot_l	clav_elev_l	scapula_abduction_l	scapula_elevation_l	scapula_upward_rot_l	scapula_winging_l	shoulder_elv_l	plane_of_elev_l	axial_rot_l	elbow_flexion_l	pro_sup_l	wrist_flex_l	wrist_dev_l
      8.86000000	     40.01984599	     13.34612603	     14.55801399	   -224.04322272	    837.07860780	      7.49954924	     12.73837192	     39.95498944	     39.19873503	     45.00000000	    -30.12499624	   2788.77365511	  -3533.07310945	     33.35781076	     49.10895001	   1453.03654032	     21.17211816	     19.76807813	      5.93553389	      7.81091001	    -45.00000000	    -36.12799784	     45.00000000	    -44.46154942	  -1342.09688771	  -2084.01890354	     22.29724966	    -48.66426144	    371.25974969	      9.59436583	      4.79252331	    -20.13609942
      8.87000000	     40.07609519	     13.52606511	     14.57843591	   -222.09840722	    836.14219724	      7.51500704	     12.92785567	     40.13176255	     39.29823039	     45.00000000	    -29.75741238	   2788.85477705	  -3533.23445781	     33.18881864	     49.36445882	   1452.93469426	     19.13493255	     19.78525838	      6.36085421	      7.58457711	    -45.00000000	    -36.14688570	     45.00000000	    -44.31573869	  -1342.30412013	  -2084.02632746	     22.28325045	    -48.45006233	    371.32672858	      9.32233438	      4.93340230	    -20.15767905
      8.88000000	     40.18304190	     13.60571597	     14.45358616	   -220.05007954	    835.14004611	      7.53354541	     12.60537979	     40.10404488	     39.34440168	     45.00000000	    -29.34881252	   2788.78422639	  -3533.47598529	     33.29807324	     49.33027465	   1452.76831355	     17.42284954	     19.73639465	      6.78483576	      7.93721677	    -45.00000000	    -36.24588523	     45.00000000	    -44.09697403	  -1342.46386734	  -2084.20180165	     22.38697576	    -48.34779892	    371.30677833	      9.09264276	      5.07243060	    -20.15525793
      8.89000000	     40.24564813	     13.83778221	     14.54731158	   -217.90237756	    834.07203791	      7.55352469	     12.75775515	     40.16908394	     39.45574841	     45.00000000	    -29.21906561	   2788.83039174	  -3533.62361082	     33.25756377	     49.32232653	   1452.61861129	     15.74059266	     19.68194957	      7.18545053	      7.81921966	    -45.00000000	    -36.23360987	     45.00000000	    -44.07721676	  -1342.68655001	  -2084.27119759	     22.44216137	    -48.08213931	    371.30296373	      8.83107605	      5.21876086	    -20.15355505
      8.90000000	     40.34633822	     13.96618146	     14.53833141	   -215.65218109	    832.93530109	      7.57227671	     12.16961238	     40.03560270	     39.48996439	     45.00000000	    -28.66089714	   2788.98615927	  -3533.75947145	     33.08916718	     49.35146587	   1452.47249068	     14.41602159	     19.58790609	      7.55542019	      8.29210851	    -45.00000000	    -36.31288116	     45.00000000	    -43.89583504	  -1342.83827457	  -2084.55949649	     22.58539246	    -47.95569732	    371.04615315	      8.63560287	      5.35445129	    -20.08053269
      8.91000000	     40.39887895	     14.19505041	     14.63375635	   -213.30301363	    831.72911651	      7.58744536	     12.22160963	     40.08861148	     39.50221369	     45.00000000	    -28.34428044	   2789.11056123	  -3533.94221188	     32.99018321	     49.44674210	   1452.35787989	     13.21840318	     19.50197173	      7.88967331	      8.23397406	    -45.00000000	    -36.27396639	     45.00000000	    -43.75614964	  -1343.02482116	  -2084.66466037	     22.64275803	    -47.80921169	    371.02928162	      8.42832406	      5.50375043	    -20.06562449
      8.92000000	     40.52861005	     14.29322355	     14.57434472	   -210.85650706	    830.45275239	      7.59725123	     13.12652729	     40.60436241	     39.88440609	     45.00000000	    -28.10070930	   2788.94361326	  -3534.23843180	     32.91867696	     49.95480006	   1452.26544460	     11.83283794	     19.44815270	      8.29390994	      7.38440913	    -45.00000000	    -36.26893514	     45.00000000	    -43.47067798	  -1343.43504891	  -2084.61108887	     22.41351140	    -47.62045928	    371.29197141	      8.14951115	      5.72359422	    -20.13263413
      8.93000000	     40.62057783	     14.46059397	     14.56228437	   -208.31250196	    829.10614090	      7.60085045	     13.05003918	     40.67237078	     39.94193602	     45.00000000	    -27.75279888	   2788.92501806	  -3534.49155343	     32.93584983	     50.13782368	   1452.14125181	     10.70301274	     19.33138820	      8.64322869	      7.47532767	    -45.00000000	    -36.31217037	     45.00000000	    -43.27073358	  -1343.67071142	  -2084.76000770	     22.46044319	    -47.50664109	    371.30110724	      7.90620116	      5.88943797	    -20.11453709
      8.94000000	     40.70464500	     14.61177172	     14.63083640	   -205.67435830	    827.68987045	      7.59825746	     13.32709848	     40.85783891	     40.13274200	     45.00000000	    -27.38719008	   2789.03247407	  -3534.69944714	     32.71618997	     50.42982935	   1452.05111203	      9.70978606	     19.22941487	      8.96269981	      7.17946641	    -45.00000000	    -36.25151424	     45.00000000	    -43.01825716	  -1343.95303935	  -2084.89282091	     22.40991689	    -47.40765057	    371.26118144	      7.65700611	      6.09015541	    -20.08343768
      8.95000000	     40.75757591	     14.82951198	     14.67602470	   -202.94446503	    826.20575401	      7.58989747	     12.94330348	     40.68033574	     40.07074863	     45.00000000	    -27.39486191	   2789.04439097	  -3534.87034936	     32.97837368	     50.20948639	   1451.94288326	      9.04592164	     19.08646444	      9.26679648	      7.62281677	    -45.00000000	    -36.36064531	     45.00000000	    -43.02924671	  -1344.11559419	  -2085.09864676	     22.59373346	    -47.37026195	    371.27962459	      7.46754435	      6.21860976	    -20.04966410
      8.96000000	     40.86660852	     14.97219512	     14.73352728	   -200.12659254	    824.65394870	      7.57642618	     13.53479734	     41.03202375	     40.36029154	     45.00000000	    -27.03098609	   2789.15634602	  -3535.10392806	     32.66246799	     50.52972749	   1451.84494217	      8.55245938	     18.99194354	      9.56005767	      7.03183032	    -45.00000000	    -36.25719049	     45.00000000	    -42.72731639	  -1344.50923972	  -2085.19570193	     22.44781736	    -47.13729444	    371.23384336	      7.25535168	      6.44928544	    -20.01308753
      8.97000000	     40.90097834	     15.23947894	     14.82623944	   -197.22541530	    823.03719849	      7.55799035	     13.16831942	     40.88843675	     40.33791100	     45.00000000	    -26.99256005	   2789.15625236	  -3535.30345296	     32.83071546	     50.46591660	   1451.75008749	      8.26484510	     18.85014228	      9.79067364	      7.42013191	    -45.00000000	    -36.32319252	     45.00000000	    -42.73582657	  -1344.69120418	  -2085.40997720	     22.62845795	    -47.09303910	    371.24265877	      7.11239804	      6.60051832	    -19.96945163
